<svg width="562" height="134" viewBox="0 0 562 134" fill="none" xmlns="http://www.w3.org/2000/svg">
<path d="M60.9576 103.944C70.1393 103.944 77.5824 87.4035 77.5824 66.9999C77.5824 46.5963 70.1393 30.0559 60.9576 30.0559" stroke="#D9D9D9" stroke-width="5.5416"/>
<path d="M44.3326 66.9999C44.3326 87.4035 36.8894 103.944 27.7078 103.944C18.5262 103.944 11.083 87.4035 11.083 66.9999C11.083 46.5963 18.5262 30.0559 27.7078 30.0559C36.8894 30.0559 44.3326 46.5963 44.3326 66.9999Z" stroke="#D9D9D9" stroke-width="5.5416"/>
<path d="M27.708 103.944C36.8896 103.944 44.3328 87.4035 44.3328 66.9999C44.3328 46.5963 36.8896 30.0559 27.708 30.0559" stroke="#D9D9D9" stroke-width="5.5416"/>
<path d="M33.2497 67.0001C33.2497 79.2423 30.7686 89.1665 27.7081 89.1665C24.6476 89.1665 22.1665 79.2423 22.1665 67.0001C22.1665 54.758 24.6476 44.8337 27.7081 44.8337C30.7686 44.8337 33.2497 54.758 33.2497 67.0001Z" stroke="#D9D9D9" stroke-width="5.5416"/>
<path d="M27.708 30.0559L60.9576 30.0559" stroke="#D9D9D9" stroke-width="5.5416"/>
<path d="M27.708 103.944L60.9576 103.944" stroke="#D9D9D9" stroke-width="5.5416"/>
<path d="M152.09 98H143.973L111.33 48.4993V98H103.213V35.745H111.33L143.973 85.1566V35.745H152.09V98ZM210.521 71.6888C210.521 73.2348 210.431 74.8699 210.253 76.5943H171.188C171.485 81.4106 173.12 85.1863 176.093 87.9215C179.126 90.5972 182.782 91.935 187.064 91.935C190.572 91.935 193.485 91.1323 195.804 89.5269C198.183 87.862 199.847 85.662 200.799 82.9268H209.54C208.231 87.6242 205.615 91.4594 201.691 94.4324C197.766 97.3459 192.891 98.8027 187.064 98.8027C182.426 98.8027 178.263 97.7622 174.577 95.681C170.95 93.5999 168.096 90.6566 166.015 86.8512C163.933 82.9863 162.893 78.5267 162.893 73.4726C162.893 68.4185 163.904 63.9887 165.925 60.1832C167.947 56.3777 170.771 53.4642 174.398 51.4425C178.085 49.3614 182.307 48.3209 187.064 48.3209C191.701 48.3209 195.804 49.3317 199.372 51.3533C202.939 53.375 205.675 56.1696 207.577 59.7373C209.54 63.2454 210.521 67.2293 210.521 71.6888ZM202.137 69.9942C202.137 66.9022 201.453 64.2562 200.085 62.0562C198.718 59.7967 196.845 58.1021 194.466 56.9724C192.147 55.7831 189.561 55.1885 186.707 55.1885C182.604 55.1885 179.096 56.4967 176.182 59.1129C173.328 61.7292 171.693 65.3563 171.277 69.9942H202.137ZM264.581 49.1236V98H256.464V90.7756C254.918 93.2729 252.748 95.2351 249.953 96.6621C247.218 98.0297 244.186 98.7135 240.856 98.7135C237.05 98.7135 233.631 97.9405 230.599 96.3946C227.566 94.7891 225.158 92.4107 223.375 89.2593C221.65 86.1079 220.788 82.2727 220.788 77.7537V49.1236H228.815V76.6835C228.815 81.4998 230.034 85.216 232.472 87.8323C234.91 90.3891 238.24 91.6675 242.461 91.6675C246.802 91.6675 250.221 90.3296 252.718 87.6539C255.216 84.9782 256.464 81.0835 256.464 75.9699V49.1236H264.581ZM337.061 48.2317C340.867 48.2317 344.256 49.0344 347.229 50.6398C350.202 52.1858 352.551 54.5345 354.275 57.6859C355.999 60.8373 356.861 64.6725 356.861 69.1915V98H348.834V70.3509C348.834 65.4752 347.615 61.7589 345.177 59.2021C342.799 56.5859 339.558 55.2777 335.456 55.2777C331.234 55.2777 327.874 56.6453 325.377 59.3805C322.88 62.0562 321.631 65.9509 321.631 71.0645V98H313.604V70.3509C313.604 65.4752 312.385 61.7589 309.947 59.2021C307.569 56.5859 304.328 55.2777 300.225 55.2777C296.004 55.2777 292.644 56.6453 290.147 59.3805C287.65 62.0562 286.401 65.9509 286.401 71.0645V98H278.285V49.1236H286.401V56.1696C288.006 53.6128 290.147 51.6506 292.823 50.2831C295.558 48.9155 298.561 48.2317 301.831 48.2317C305.934 48.2317 309.561 49.1533 312.712 50.9966C315.863 52.8399 318.212 55.5453 319.758 59.1129C321.126 55.6642 323.385 52.9885 326.537 51.0858C329.688 49.183 333.196 48.2317 337.061 48.2317ZM367.143 73.3834C367.143 68.3887 368.154 64.0184 370.175 60.2724C372.197 56.4669 374.962 53.5237 378.47 51.4425C382.038 49.3614 385.992 48.3209 390.332 48.3209C394.613 48.3209 398.33 49.2425 401.481 51.0858C404.632 52.929 406.981 55.248 408.527 58.0426V49.1236H416.733V98H408.527V88.9026C406.922 91.7567 404.514 94.1351 401.303 96.0378C398.151 97.8811 394.465 98.8027 390.243 98.8027C385.902 98.8027 381.978 97.7324 378.47 95.5919C374.962 93.4513 372.197 90.4485 370.175 86.5836C368.154 82.7187 367.143 78.3186 367.143 73.3834ZM408.527 73.4726C408.527 69.7861 407.784 66.5752 406.297 63.84C404.811 61.1048 402.789 59.0237 400.232 57.5967C397.735 56.1102 394.97 55.3669 391.938 55.3669C388.905 55.3669 386.14 56.0804 383.643 57.5075C381.146 58.9345 379.154 61.0157 377.667 63.7508C376.181 66.486 375.437 69.6969 375.437 73.3834C375.437 77.1294 376.181 80.3997 377.667 83.1944C379.154 85.9295 381.146 88.0404 383.643 89.5269C386.14 90.9539 388.905 91.6675 391.938 91.6675C394.97 91.6675 397.735 90.9539 400.232 89.5269C402.789 88.0404 404.811 85.9295 406.297 83.1944C407.784 80.3997 408.527 77.1591 408.527 73.4726ZM438.565 58.1318C440.17 55.3372 442.549 53.0182 445.7 51.175C448.911 49.2722 452.627 48.3209 456.849 48.3209C461.189 48.3209 465.114 49.3614 468.622 51.4425C472.19 53.5237 474.984 56.4669 477.006 60.2724C479.028 64.0184 480.038 68.3887 480.038 73.3834C480.038 78.3186 479.028 82.7187 477.006 86.5836C474.984 90.4485 472.19 93.4513 468.622 95.5919C465.114 97.7324 461.189 98.8027 456.849 98.8027C452.687 98.8027 449 97.8811 445.789 96.0378C442.638 94.1351 440.23 91.7864 438.565 88.9918V121.19H430.448V49.1236H438.565V58.1318ZM471.744 73.3834C471.744 69.6969 471 66.486 469.514 63.7508C468.027 61.0157 466.006 58.9345 463.449 57.5075C460.952 56.0804 458.187 55.3669 455.154 55.3669C452.181 55.3669 449.416 56.1102 446.86 57.5967C444.362 59.0237 442.341 61.1346 440.795 63.9292C439.308 66.6644 438.565 69.8455 438.565 73.4726C438.565 77.1591 439.308 80.3997 440.795 83.1944C442.341 85.9295 444.362 88.0404 446.86 89.5269C449.416 90.9539 452.181 91.6675 455.154 91.6675C458.187 91.6675 460.952 90.9539 463.449 89.5269C466.006 88.0404 468.027 85.9295 469.514 83.1944C471 80.3997 471.744 77.1294 471.744 73.3834ZM498.838 58.1318C500.444 55.3372 502.822 53.0182 505.973 51.175C509.184 49.2722 512.9 48.3209 517.122 48.3209C521.463 48.3209 525.387 49.3614 528.895 51.4425C532.463 53.5237 535.258 56.4669 537.279 60.2724C539.301 64.0184 540.312 68.3887 540.312 73.3834C540.312 78.3186 539.301 82.7187 537.279 86.5836C535.258 90.4485 532.463 93.4513 528.895 95.5919C525.387 97.7324 521.463 98.8027 517.122 98.8027C512.96 98.8027 509.273 97.8811 506.063 96.0378C502.911 94.1351 500.503 91.7864 498.838 88.9918V121.19H490.722V49.1236H498.838V58.1318ZM532.017 73.3834C532.017 69.6969 531.274 66.486 529.787 63.7508C528.301 61.0157 526.279 58.9345 523.722 57.5075C521.225 56.0804 518.46 55.3669 515.428 55.3669C512.454 55.3669 509.69 56.1102 507.133 57.5967C504.635 59.0237 502.614 61.1346 501.068 63.9292C499.581 66.6644 498.838 69.8455 498.838 73.4726C498.838 77.1591 499.581 80.3997 501.068 83.1944C502.614 85.9295 504.635 88.0404 507.133 89.5269C509.69 90.9539 512.454 91.6675 515.428 91.6675C518.46 91.6675 521.225 90.9539 523.722 89.5269C526.279 88.0404 528.301 85.9295 529.787 83.1944C531.274 80.3997 532.017 77.1294 532.017 73.3834Z" fill="#D9D9D9"/>
</svg>
