<svg width="126" height="126" viewBox="0 0 126 126" fill="none" xmlns="http://www.w3.org/2000/svg">
<path d="M63.2951 0.361572C28.9191 0.361572 0.954102 28.3266 0.954102 62.7025C0.954102 97.0784 28.9191 125.043 63.2951 125.043C97.671 125.043 125.636 97.0784 125.636 62.7025C125.636 28.3266 97.671 0.361572 63.2951 0.361572ZM63.2951 119.848C53.5906 119.848 44.4525 117.402 36.4417 113.116L46.9461 109.614C47.7877 109.334 48.4318 108.643 48.6449 107.78L51.0502 98.1589C51.2788 97.2445 50.9929 96.2782 50.3072 95.6341C45.3771 91.0104 42.1145 84.2309 41.5795 77.5034C41.4704 76.1526 40.3431 75.1137 38.9872 75.1137H38.1872C37.0235 75.1137 36.0416 74.2461 35.8962 73.0928L34.6701 63.2792C34.587 62.6141 34.7897 61.97 35.2312 61.4662C35.6727 60.9623 36.2909 60.6869 37.4703 60.6869C38.2184 60.6869 38.9249 60.3701 39.4185 59.809C39.9121 59.2531 40.1405 58.505 40.047 57.7674C39.7302 55.253 38.9093 48.2136 38.9093 45.824C38.9093 38.2444 40.4003 31.4283 58.4169 31.2466C58.9468 31.2415 59.4716 31.0752 59.9026 30.7635C65.3469 26.8672 71.2019 26.3424 76.2047 26.3424C83.0467 26.3424 87.8781 28.4204 90.5639 32.5246C93.7693 37.4184 92.3978 39.9381 90.9016 41.5329L88.4496 43.9849C87.9925 44.442 87.7222 45.0498 87.6911 45.6942L87.0937 57.9702C87.0574 58.6767 87.3119 59.3624 87.795 59.8767C88.2782 60.3859 88.9483 60.6872 89.6548 60.6923C90.325 60.7027 90.9379 60.9833 91.3743 61.4871C91.8107 61.9858 92.0028 62.6248 91.9198 63.2794L90.6936 73.093C90.5483 74.2463 89.5664 75.114 88.1637 75.114C86.8078 75.114 85.6806 76.1531 85.5715 77.5036C85.026 84.4442 81.6077 91.3538 76.428 95.9982C75.7111 96.6372 75.4099 97.6242 75.6437 98.5593L77.9503 107.781C78.1685 108.643 78.8075 109.334 79.6491 109.615L90.1535 113.116C82.1376 117.402 72.9995 119.848 63.2951 119.848ZM95.9045 109.562L82.657 105.146L81.0673 98.7826C86.0651 93.8058 89.4885 87.0053 90.5276 80.0129C93.3278 79.1868 95.4837 76.766 95.8628 73.7425L97.089 63.9289C97.3539 61.8144 96.7044 59.6846 95.3018 58.0793C94.5018 57.1598 93.5044 56.4636 92.3978 56.0272L92.8393 46.9461L94.6367 45.1487C97.437 42.1719 99.7592 37.0704 94.9173 29.6776C91.208 24.0151 84.9115 21.1421 76.2099 21.1421C72.7916 21.1421 64.9157 21.1421 57.5699 26.0619C36.5817 26.5138 33.7245 36.2858 33.7245 45.8188C33.7245 48.0008 34.2493 52.8685 34.5973 55.8764C33.3556 56.2921 32.2283 57.0297 31.3451 58.0272C29.9217 59.6376 29.2566 61.7884 29.5216 63.9235L30.7477 73.7371C31.1529 76.9684 33.5842 79.5088 36.665 80.1531C37.6987 86.8652 40.9458 93.4473 45.6526 98.336L43.9538 105.136L30.6803 109.562C15.8743 99.2238 6.1491 82.0906 6.1491 62.7025C6.1491 31.1943 31.7868 5.55657 63.2951 5.55657C94.8033 5.55657 120.441 31.1943 120.441 62.7025C120.441 82.0906 110.716 99.2292 95.9045 109.562Z" fill="white"/>
</svg>
